<?xml version="1.0" encoding="UTF-8" standalone="no"?>
<!-- Created with Inkscape (http://www.inkscape.org/) -->

<svg
   xmlns:dc="http://purl.org/dc/elements/1.1/"
   xmlns:cc="http://creativecommons.org/ns#"
   xmlns:rdf="http://www.w3.org/1999/02/22-rdf-syntax-ns#"
   xmlns:svg="http://www.w3.org/2000/svg"
   xmlns="http://www.w3.org/2000/svg"
   xmlns:sodipodi="http://sodipodi.sourceforge.net/DTD/sodipodi-0.dtd"
   xmlns:inkscape="http://www.inkscape.org/namespaces/inkscape"
   width="43.117001mm"
   height="10.138mm"
   viewBox="0 0 43.117001 10.138"
   version="1.1"
   id="svg8"
   inkscape:version="0.92.1 r15371"
   sodipodi:docname="logo.svg">
  <defs
     id="defs2" />
  <sodipodi:namedview
     id="base"
     pagecolor="#ffffff"
     bordercolor="#666666"
     borderopacity="1.0"
     inkscape:pageopacity="0.0"
     inkscape:pageshadow="2"
     inkscape:zoom="2.8"
     inkscape:cx="28.617615"
     inkscape:cy="19.309335"
     inkscape:document-units="mm"
     inkscape:current-layer="layer1"
     showgrid="false"
     inkscape:window-width="1269"
     inkscape:window-height="704"
     inkscape:window-x="0"
     inkscape:window-y="27"
     inkscape:window-maximized="1" />
  <metadata
     id="metadata5">
    <rdf:RDF>
      <cc:Work
         rdf:about="">
        <dc:format>image/svg+xml</dc:format>
        <dc:type
           rdf:resource="http://purl.org/dc/dcmitype/StillImage" />
        <dc:title></dc:title>
      </cc:Work>
    </rdf:RDF>
  </metadata>
  <g
     inkscape:label="Camada 1"
     inkscape:groupmode="layer"
     id="layer1"
     transform="translate(0,-286.862)">
    <g
       id="g163"
       transform="translate(-16.230741,238.86383)">
      <text
         id="text12"
         y="56.607143"
         x="16.404161"
         style="font-style:normal;font-variant:normal;font-weight:normal;font-stretch:normal;font-size:8.01455212px;line-height:1.25;font-family:AngryBirds;-inkscape-font-specification:AngryBirds;letter-spacing:0px;word-spacing:0px;fill:#ffff00;fill-opacity:1;stroke:none;stroke-width:0.26458332"
         xml:space="preserve"><tspan
           style="font-style:normal;font-variant:normal;font-weight:normal;font-stretch:normal;font-family:'Antique Olive Std';-inkscape-font-specification:'Antique Olive Std';fill:#ffff00;stroke-width:0.26458332"
           y="56.607143"
           x="16.404161"
           id="tspan10"
           sodipodi:role="line">Esperança</tspan></text>
      <g
         transform="matrix(0.44118314,0,0,0.44118314,0.83171402,19.750913)"
         id="g109">
        <text
           xml:space="preserve"
           style="font-style:normal;font-variant:normal;font-weight:normal;font-stretch:normal;font-size:8.01455212px;line-height:1.25;font-family:AngryBirds;-inkscape-font-specification:AngryBirds;letter-spacing:0px;word-spacing:0px;fill:#ffff00;fill-opacity:1;stroke:none;stroke-width:0.26458332"
           x="48.758926"
           y="70.970238"
           id="text16"><tspan
             sodipodi:role="line"
             id="tspan14"
             x="48.758926"
             y="70.970238"
             style="font-style:normal;font-variant:normal;font-weight:normal;font-stretch:normal;font-family:'Antique Olive Std';-inkscape-font-specification:'Antique Olive Std';fill:#ffff00;stroke-width:0.26458332">aut  esc  la</tspan></text>
        <g
           style="fill:#ffff00;stroke:none"
           transform="matrix(4.0023499e-4,0,0,-4.0023499e-4,62.847415,71.116839)"
           id="g22">
          <path
             inkscape:connector-curvature="0"
             d="m 6190,12797 c -3,-3 -79,-11 -170,-17 -913,-63 -1696,-273 -2481,-665 -483,-242 -901,-522 -1329,-889 -135,-116 -520,-501 -636,-636 C 704,9577 180,8372 46,7080 -11,6538 -9,6221 51,5675 248,3903 1188,2292 2647,1226 3378,693 4243,313 5130,136 5904,-19 6619,-35 7390,85 c 1097,170 2143,632 3010,1329 329,264 723,658 982,981 691,863 1140,1864 1323,2952 131,782 118,1529 -41,2323 -314,1574 -1235,2993 -2554,3934 -1071,765 -2309,1165 -3685,1193 -126,3 -232,2 -235,0 z m 670,-2342 c 1225,-148 2282,-800 2953,-1821 352,-536 556,-1098 644,-1779 25,-198 25,-708 -1,-915 -78,-630 -272,-1185 -594,-1700 -573,-915 -1492,-1574 -2532,-1814 -339,-78 -551,-101 -930,-101 -381,0 -619,27 -945,105 -1576,377 -2776,1644 -3069,3240 -49,268 -60,403 -60,730 0,327 11,461 60,730 153,837 550,1582 1165,2186 685,672 1567,1073 2534,1153 161,14 615,5 775,-14 z"
             id="path2"
             style="fill:#ffff00" />
          <path
             inkscape:connector-curvature="0"
             d="m 6322,9804 c -97,-26 -164,-65 -243,-144 -86,-86 -131,-165 -154,-275 -18,-88 -18,-132 0,-220 42,-202 199,-370 390,-419 85,-23 228,-21 306,4 168,52 295,173 358,340 21,55 25,83 25,180 0,95 -4,126 -23,180 -62,175 -205,308 -382,355 -68,19 -208,18 -277,-1 z"
             id="path4"
             style="fill:#ffff00" />
          <path
             inkscape:connector-curvature="0"
             d="m 4250,8934 c -199,-43 -368,-208 -415,-406 -43,-185 9,-371 142,-510 115,-119 260,-175 423,-165 135,9 238,52 337,142 187,168 232,439 110,670 -67,127 -219,239 -364,270 -84,18 -148,18 -233,-1 z"
             id="path6"
             style="fill:#ffff00" />
          <path
             inkscape:connector-curvature="0"
             d="m 8370,8899 c -140,-23 -309,-145 -377,-274 -73,-140 -89,-305 -41,-441 114,-323 477,-467 779,-308 172,91 289,284 289,479 0,155 -53,280 -164,391 -132,132 -296,183 -486,153 z"
             id="path8"
             style="fill:#ffff00" />
          <path
             inkscape:connector-curvature="0"
             d="M 6155,7844 C 5561,7734 5110,7308 4972,6727 c -25,-103 -27,-129 -27,-327 0,-199 2,-223 27,-328 124,-521 512,-931 1018,-1078 257,-75 563,-75 820,0 479,139 857,517 996,996 75,257 75,563 0,820 -146,504 -558,894 -1072,1016 -93,22 -137,27 -304,30 -143,2 -216,-1 -275,-12 z"
             id="path10"
             style="fill:#ffff00" />
          <path
             inkscape:connector-curvature="0"
             d="m 3450,6910 c -221,-34 -399,-193 -455,-407 -20,-75 -19,-199 1,-277 48,-186 203,-340 394,-391 72,-19 201,-19 275,0 182,48 333,197 389,384 20,68 21,217 1,290 -49,184 -219,352 -395,389 -75,16 -152,20 -210,12 z"
             id="path12"
             style="fill:#ffff00" />
          <path
             inkscape:connector-curvature="0"
             d="m 9192,6909 c -264,-39 -462,-269 -462,-536 0,-162 49,-283 160,-393 107,-108 233,-160 385,-160 151,0 277,52 385,160 110,109 160,231 160,390 0,333 -296,587 -628,539 z"
             id="path14"
             style="fill:#ffff00" />
          <path
             inkscape:connector-curvature="0"
             d="m 4187,4905 c -405,-111 -543,-621 -248,-914 72,-71 152,-119 245,-146 82,-24 258,-17 335,13 176,69 307,223 346,407 18,88 18,132 0,220 -23,110 -68,189 -154,275 -81,80 -146,119 -247,145 -70,18 -211,18 -277,0 z"
             id="path16"
             style="fill:#ffff00" />
          <path
             inkscape:connector-curvature="0"
             d="m 8293,4865 c -82,-22 -166,-69 -231,-130 -121,-111 -175,-237 -175,-400 1,-120 24,-203 81,-291 84,-128 203,-214 341,-245 69,-16 204,-13 268,6 143,42 275,147 341,271 164,313 -6,698 -348,789 -69,18 -209,18 -277,0 z"
             id="path18"
             style="fill:#ffff00" />
          <path
             inkscape:connector-curvature="0"
             d="m 6320,4056 c -202,-56 -351,-215 -395,-422 -18,-87 -18,-131 0,-219 39,-185 175,-343 350,-407 73,-26 226,-35 306,-19 174,36 327,171 396,347 23,60 27,84 27,184 1,87 -3,128 -18,170 -60,179 -208,319 -381,365 -70,18 -221,18 -285,1 z"
             id="path20"
             style="fill:#ffff00" />
        </g>
        <g
           id="g83"
           transform="matrix(4.0023499e-4,0,0,-4.0023499e-4,81.36826,71.116839)"
           style="fill:#ffff00;stroke:none">
          <path
             style="fill:#ffff00"
             id="path63"
             d="m 6190,12797 c -3,-3 -79,-11 -170,-17 -913,-63 -1696,-273 -2481,-665 -483,-242 -901,-522 -1329,-889 -135,-116 -520,-501 -636,-636 C 704,9577 180,8372 46,7080 -11,6538 -9,6221 51,5675 248,3903 1188,2292 2647,1226 3378,693 4243,313 5130,136 5904,-19 6619,-35 7390,85 c 1097,170 2143,632 3010,1329 329,264 723,658 982,981 691,863 1140,1864 1323,2952 131,782 118,1529 -41,2323 -314,1574 -1235,2993 -2554,3934 -1071,765 -2309,1165 -3685,1193 -126,3 -232,2 -235,0 z m 670,-2342 c 1225,-148 2282,-800 2953,-1821 352,-536 556,-1098 644,-1779 25,-198 25,-708 -1,-915 -78,-630 -272,-1185 -594,-1700 -573,-915 -1492,-1574 -2532,-1814 -339,-78 -551,-101 -930,-101 -381,0 -619,27 -945,105 -1576,377 -2776,1644 -3069,3240 -49,268 -60,403 -60,730 0,327 11,461 60,730 153,837 550,1582 1165,2186 685,672 1567,1073 2534,1153 161,14 615,5 775,-14 z"
             inkscape:connector-curvature="0" />
          <path
             style="fill:#ffff00"
             id="path65"
             d="m 6322,9804 c -97,-26 -164,-65 -243,-144 -86,-86 -131,-165 -154,-275 -18,-88 -18,-132 0,-220 42,-202 199,-370 390,-419 85,-23 228,-21 306,4 168,52 295,173 358,340 21,55 25,83 25,180 0,95 -4,126 -23,180 -62,175 -205,308 -382,355 -68,19 -208,18 -277,-1 z"
             inkscape:connector-curvature="0" />
          <path
             style="fill:#ffff00"
             id="path67"
             d="m 4250,8934 c -199,-43 -368,-208 -415,-406 -43,-185 9,-371 142,-510 115,-119 260,-175 423,-165 135,9 238,52 337,142 187,168 232,439 110,670 -67,127 -219,239 -364,270 -84,18 -148,18 -233,-1 z"
             inkscape:connector-curvature="0" />
          <path
             style="fill:#ffff00"
             id="path69"
             d="m 8370,8899 c -140,-23 -309,-145 -377,-274 -73,-140 -89,-305 -41,-441 114,-323 477,-467 779,-308 172,91 289,284 289,479 0,155 -53,280 -164,391 -132,132 -296,183 -486,153 z"
             inkscape:connector-curvature="0" />
          <path
             style="fill:#ffff00"
             id="path71"
             d="M 6155,7844 C 5561,7734 5110,7308 4972,6727 c -25,-103 -27,-129 -27,-327 0,-199 2,-223 27,-328 124,-521 512,-931 1018,-1078 257,-75 563,-75 820,0 479,139 857,517 996,996 75,257 75,563 0,820 -146,504 -558,894 -1072,1016 -93,22 -137,27 -304,30 -143,2 -216,-1 -275,-12 z"
             inkscape:connector-curvature="0" />
          <path
             style="fill:#ffff00"
             id="path73"
             d="m 3450,6910 c -221,-34 -399,-193 -455,-407 -20,-75 -19,-199 1,-277 48,-186 203,-340 394,-391 72,-19 201,-19 275,0 182,48 333,197 389,384 20,68 21,217 1,290 -49,184 -219,352 -395,389 -75,16 -152,20 -210,12 z"
             inkscape:connector-curvature="0" />
          <path
             style="fill:#ffff00"
             id="path75"
             d="m 9192,6909 c -264,-39 -462,-269 -462,-536 0,-162 49,-283 160,-393 107,-108 233,-160 385,-160 151,0 277,52 385,160 110,109 160,231 160,390 0,333 -296,587 -628,539 z"
             inkscape:connector-curvature="0" />
          <path
             style="fill:#ffff00"
             id="path77"
             d="m 4187,4905 c -405,-111 -543,-621 -248,-914 72,-71 152,-119 245,-146 82,-24 258,-17 335,13 176,69 307,223 346,407 18,88 18,132 0,220 -23,110 -68,189 -154,275 -81,80 -146,119 -247,145 -70,18 -211,18 -277,0 z"
             inkscape:connector-curvature="0" />
          <path
             style="fill:#ffff00"
             id="path79"
             d="m 8293,4865 c -82,-22 -166,-69 -231,-130 -121,-111 -175,-237 -175,-400 1,-120 24,-203 81,-291 84,-128 203,-214 341,-245 69,-16 204,-13 268,6 143,42 275,147 341,271 164,313 -6,698 -348,789 -69,18 -209,18 -277,0 z"
             inkscape:connector-curvature="0" />
          <path
             style="fill:#ffff00"
             id="path81"
             d="m 6320,4056 c -202,-56 -351,-215 -395,-422 -18,-87 -18,-131 0,-219 39,-185 175,-343 350,-407 73,-26 226,-35 306,-19 174,36 327,171 396,347 23,60 27,84 27,184 1,87 -3,128 -18,170 -60,179 -208,319 -381,365 -70,18 -221,18 -285,1 z"
             inkscape:connector-curvature="0" />
        </g>
      </g>
    </g>
  </g>
</svg>
